HIERARCHY
ROOT Hips
{
	OFFSET 0.000000 0.000000 0.000000
	CHANNELS 6 Xposition Yposition Zposition Zrotation Yrotation Xrotation 
	JOINT LeftUpLeg_virtual
	{
		OFFSET 0.000000 0.000000 0.000000
		CHANNELS 3 Zrotation Yrotation Xrotation
		JOINT LeftUpLeg
		{
			OFFSET 10.205400 -3.823500 0.155100
			CHANNELS 3 Zrotation Yrotation Xrotation
			JOINT LeftLeg
			{
				OFFSET 0.708757 -12.982077 0.567790
				CHANNELS 3 Zrotation Yrotation Xrotation
				JOINT LeftFoot
				{
					OFFSET -0.708756 -10.717838 -2.184338
					CHANNELS 3 Zrotation Yrotation Xrotation
					JOINT LeftToeBase
					{
						OFFSET 0.108149 -7.191104 7.560241
						CHANNELS 3 Zrotation Yrotation Xrotation
						End Site
						{
							OFFSET 0.000000 0.000000 0.000000
						}
					}
				}
			}
		}
	}
	JOINT RightUpLeg_virtual
	{
		OFFSET 0.000000 0.000000 0.000000
		CHANNELS 3 Zrotation Yrotation Xrotation
		JOINT RightUpLeg
		{
			OFFSET -10.205400 -3.823500 0.005500
			CHANNELS 3 Zrotation Yrotation Xrotation
			JOINT RightLeg
			{
				OFFSET -0.708756 -12.982134 0.610632
				CHANNELS 3 Zrotation Yrotation Xrotation
				JOINT RightFoot
				{
					OFFSET 0.708754 -10.717769 -1.945823
					CHANNELS 3 Zrotation Yrotation Xrotation
					JOINT RightToeBase
					{
						OFFSET -0.108140 -7.191069 7.372968
						CHANNELS 3 Zrotation Yrotation Xrotation
						End Site
						{
							OFFSET 0.000000 0.000000 0.000000
						}
					}
				}
			}
		}
	}
	JOINT Spine_virtual
	{
		OFFSET 0.000000 0.000000 0.000000
		CHANNELS 3 Zrotation Yrotation Xrotation
		JOINT Spine
		{
			OFFSET 0.000000 6.876099 0.125700
			CHANNELS 3 Zrotation Yrotation Xrotation
			JOINT Spine1
			{
				OFFSET 0.000000 8.022060 0.146608
				CHANNELS 3 Zrotation Yrotation Xrotation
				JOINT Spine2
				{
					OFFSET 0.000000 9.168068 0.167552
					CHANNELS 3 Zrotation Yrotation Xrotation
					JOINT Neck_virtual
					{
						OFFSET 0.000000 0.000000 0.000000
						CHANNELS 3 Zrotation Yrotation Xrotation
						JOINT Neck
						{
							OFFSET 0.000000 10.314075 0.188496
							CHANNELS 3 Zrotation Yrotation Xrotation
							JOINT Head
							{
								OFFSET 0.000000 7.643700 -2.377400
								CHANNELS 3 Zrotation Yrotation Xrotation
								End Site
								{
									OFFSET 0.000000 0.000000 0.000000
								}
							}
						}
					}
					JOINT LeftShoulder_virtual
					{
						OFFSET 0.000000 0.000000 0.000000
						CHANNELS 3 Zrotation Yrotation Xrotation
						JOINT LeftShoulder
						{
							OFFSET 4.392200 8.824978 0.174984
							CHANNELS 3 Zrotation Yrotation Xrotation
							JOINT LeftArm
							{
								OFFSET 8.771219 -2.981674 -0.026999
								CHANNELS 3 Zrotation Yrotation Xrotation
								JOINT LeftForeArm
								{
									OFFSET 8.512804 0.000000 -0.000000
									CHANNELS 3 Zrotation Yrotation Xrotation
									JOINT LeftHand
									{
										OFFSET 18.484802 0.000000 -0.000000
										CHANNELS 3 Zrotation Yrotation Xrotation
										End Site
										{
											OFFSET 0.000000 0.000000 0.000000
										}
									}
								}
							}
						}
					}
					JOINT RightShoulder_virtual
					{
						OFFSET 0.000000 0.000000 0.000000
						CHANNELS 3 Zrotation Yrotation Xrotation
						JOINT RightShoulder
						{
							OFFSET -4.392200 8.824993 0.141379
							CHANNELS 3 Zrotation Yrotation Xrotation
							JOINT RightArm
							{
								OFFSET -8.771282 -2.981682 -0.094208
								CHANNELS 3 Zrotation Yrotation Xrotation
								JOINT RightForeArm
								{
									OFFSET -8.494598 0.000000 0.000000
									CHANNELS 3 Zrotation Yrotation Xrotation
									JOINT RightHand
									{
										OFFSET -18.483803 0.000000 0.000001
										CHANNELS 3 Zrotation Yrotation Xrotation
										End Site
										{
											OFFSET 0.000000 0.000000 0.000000
										}
									}
								}
							}
						}
					}
				}
			}
		}
	}
}
MOTION
Frames: 12
Frame Time: 0.033333
-2.838819 36.270287 -3.061483 179.901923 4.602335 -179.202977 -2.660449 -4.856270 12.214851 4.802277 -2.959368 -36.277525 3.264653 0.065141 17.741155 -8.135220 3.932340 14.465022 0.000000 0.000000 0.000000 3.932507 -2.933919 10.694237 -4.322817 -5.140355 -14.402297 -5.844754 7.149972 24.918292 10.268422 7.688365 10.075161 0.000000 0.000000 0.000000 0.393851 -0.268500 1.700386 -5.803359 -0.197511 -6.078967 -1.037906 -1.258533 9.064193 0.011541 0.045951 0.065758 -1.194094 0.599229 10.828379 -10.464943 6.456007 8.613269 0.000000 0.000000 0.000000 0.169476 0.882003 8.006384 -0.247718 -6.852902 -3.053206 -24.318609 -8.767326 -13.935525 3.063543 -75.864783 3.792942 0.000000 0.000000 0.000000 -3.165205 2.141767 7.226825 1.116863 8.081961 -16.044253 10.164787 14.441889 -17.297787 -56.810921 83.638562 -57.141550 0.000000 0.000000 0.000000 
-3.238224 36.366268 -3.596903 179.753503 4.588694 -179.290157 -2.697046 -4.774395 12.590583 3.938851 -2.827523 -35.586938 2.578919 1.510418 17.621772 -7.802712 4.230363 13.677303 0.000000 0.000000 0.000000 3.744029 -2.516461 10.733217 -4.709636 -5.543484 -15.248452 -6.192003 7.643234 25.717389 10.516378 8.162255 13.266944 0.000000 0.000000 0.000000 0.179277 -0.039988 2.007008 -5.769940 -0.264216 -6.064816 -1.189930 -1.336699 9.209905 0.018134 -0.097412 0.109349 -1.304434 0.383626 10.900715 -11.123486 6.857915 8.251564 0.000000 0.000000 0.000000 0.117758 0.884649 8.157950 0.020840 -6.954124 -3.104351 -23.848521 -11.895737 -13.045797 3.400406 -77.496686 4.120133 0.000000 0.000000 0.000000 -3.263721 2.161389 7.221837 0.084427 7.244205 -17.367622 11.062425 16.357974 -15.804429 -89.008273 84.685296 -90.294807 0.000000 0.000000 0.000000 
-3.648086 36.467903 -4.111313 179.850178 4.385883 -179.390807 -2.747864 -4.720451 12.964326 2.405712 -1.505157 -34.717852 2.152732 1.738862 17.193936 -7.791043 4.881027 13.198997 0.000000 0.000000 0.000000 3.596214 -2.014982 10.827685 -4.738851 -5.804184 -16.145080 -6.024496 7.998240 26.370399 9.264030 9.141360 16.477819 0.000000 0.000000 0.000000 0.171829 -0.129478 2.354943 -5.636848 -0.588627 -6.070871 -1.348594 -1.283929 9.340381 0.001263 -0.068467 0.135477 -1.450044 0.355903 11.142300 -11.801135 7.300711 8.031428 0.000000 0.000000 0.000000 0.028076 0.784352 8.338724 0.463260 -7.161024 -3.116188 -23.494942 -14.965366 -11.906778 3.655334 -79.444246 4.745919 0.000000 0.000000 0.000000 -3.411928 2.126262 7.271977 -0.940566 6.417149 -18.459624 12.391786 18.204225 -14.403283 -122.128782 83.758323 -124.475539 0.000000 0.000000 0.000000 
-4.047449 36.587540 -4.592229 179.864221 4.083924 -179.484995 -2.900580 -4.635593 13.306560 1.129512 -0.332692 -33.934490 1.934273 2.438471 16.846240 -8.321092 5.062587 12.843338 0.000000 0.000000 0.000000 3.415127 -1.481054 11.066241 -4.728001 -6.284405 -16.995121 -6.097363 8.024852 26.865603 8.386083 9.653001 19.023579 0.000000 0.000000 0.000000 0.097821 -0.104068 2.779904 -5.542950 -0.913689 -6.092565 -1.487117 -1.419630 9.450889 0.014408 -0.113523 0.066463 -1.658477 0.248725 11.409862 -12.296661 7.683813 7.806282 0.000000 0.000000 0.000000 -0.159367 0.624850 8.520486 1.113337 -7.380182 -3.043066 -23.061621 -17.842092 -10.433052 3.438873 -82.197420 6.035702 0.000000 0.000000 0.000000 -3.559455 2.046830 7.421008 -1.904111 5.604292 -19.404122 14.030199 20.112100 -13.209536 -143.210284 81.275795 -146.657043 0.000000 0.000000 0.000000 
-4.435473 36.712524 -5.048165 179.859453 3.932396 -179.463985 -3.203535 -4.696982 13.697827 0.272727 0.577195 -33.342135 1.947517 3.714475 16.634835 -9.079264 4.801013 12.392012 0.000000 0.000000 0.000000 3.450471 -1.104842 11.458246 -4.891313 -7.012978 -17.700305 -6.586438 7.840942 27.125193 8.468160 9.048533 20.822378 0.000000 0.000000 0.000000 -0.006694 -0.036400 3.139534 -5.515799 -1.187277 -6.171083 -1.598980 -1.537305 9.569905 0.038392 -0.189291 0.108010 -1.737783 0.333304 11.606620 -12.524715 8.122564 7.587089 0.000000 0.000000 0.000000 -0.306004 0.503864 8.661224 1.934111 -7.636708 -2.981824 -22.836860 -20.893067 -8.410939 1.999216 -85.390021 8.709702 0.000000 0.000000 0.000000 -3.720790 1.957302 7.498943 -2.836639 4.899678 -20.168485 15.869736 22.013145 -12.070118 -153.803702 78.055573 -158.354767 0.000000 0.000000 0.000000 
-4.809838 36.827629 -5.468719 179.792955 3.800979 -179.384974 -3.576964 -5.062660 14.199888 -0.156414 1.249980 -32.906342 2.055052 5.645788 16.661705 -9.603345 4.324032 11.801938 0.000000 0.000000 0.000000 3.471008 -0.870212 11.947927 -5.087379 -7.822827 -18.284797 -7.079088 7.468213 27.269260 8.411649 7.227577 22.087133 0.000000 0.000000 0.000000 -0.186097 0.258729 3.539386 -5.514997 -1.404441 -6.251240 -1.711358 -1.688448 9.681704 -0.008262 -0.238176 0.124701 -1.845436 0.195336 11.830623 -12.654040 8.373759 7.423104 0.000000 0.000000 0.000000 -0.365272 0.369571 8.797763 2.803405 -8.028360 -2.878072 -22.986331 -23.932981 -5.838420 -4.351140 -88.529934 16.403058 0.000000 0.000000 0.000000 -3.760980 1.858408 7.610839 -3.662980 4.305576 -20.591163 17.758827 23.798080 -10.850570 -159.545118 74.740629 -165.134303 0.000000 0.000000 0.000000 
-5.153508 36.925613 -5.868025 179.982971 3.757160 -179.334731 -3.917102 -4.712124 14.615485 -0.303200 1.535735 -32.722665 1.982753 6.963622 17.043817 -9.935771 3.618531 11.313962 0.000000 0.000000 0.000000 3.553866 -0.690581 12.434017 -4.970556 -8.394047 -18.836598 -7.420884 7.041028 27.343050 8.030735 5.262478 23.138475 0.000000 0.000000 0.000000 -0.334314 0.295640 3.986270 -5.445570 -1.352854 -6.286055 -1.657564 -1.675696 9.813394 -0.018587 -0.173768 0.126165 -1.931716 0.265714 11.982388 -12.647519 8.603156 7.257503 0.000000 0.000000 0.000000 -0.440517 0.272478 8.897459 3.632756 -8.438059 -2.636280 -23.741107 -26.677028 -2.768660 -164.703564 -88.617750 178.180811 0.000000 0.000000 0.000000 -3.889695 1.767512 7.676870 -4.324538 3.923469 -20.930437 19.776318 25.469475 -9.412449 -162.990375 71.783724 -169.475749 0.000000 0.000000 0.000000 
-5.468573 37.011845 -6.260321 -179.932004 3.745587 -179.344170 -4.346239 -4.190419 14.956070 -0.191572 1.508295 -32.735430 1.938179 8.602688 17.773996 -10.080586 2.717535 10.949165 0.000000 0.000000 0.000000 3.472707 -0.766558 12.931527 -5.020001 -8.713946 -19.222055 -7.571738 6.968768 27.159679 7.711731 3.787017 24.042198 0.000000 0.000000 0.000000 -0.631193 0.437002 4.659159 -5.538712 -1.098461 -6.299018 -1.591062 -1.762223 9.743198 -0.054246 -0.259568 0.105914 -1.824094 0.231185 12.090205 -12.387794 8.965504 7.261323 0.000000 0.000000 0.000000 -0.354419 0.319543 8.973721 4.302655 -8.670848 -2.607936 -25.417979 -29.092959 0.930275 -167.982205 -86.544582 -177.080195 0.000000 0.000000 0.000000 -3.762244 1.810100 7.844272 -4.857973 3.701332 -21.133930 21.459821 26.602979 -7.943468 -165.455281 69.258617 -172.688943 0.000000 0.000000 0.000000 
-5.739997 37.098351 -6.653399 -179.787450 3.631722 -179.346848 -4.835983 -3.909349 15.287507 0.091140 1.484889 -32.872157 1.671395 9.173064 18.515786 -9.756586 1.828171 10.458932 0.000000 0.000000 0.000000 3.345362 -1.187123 13.478090 -5.114779 -8.864983 -19.428152 -7.552511 7.296992 26.537170 7.635028 3.523934 24.905199 0.000000 0.000000 0.000000 -1.037176 0.166440 5.313887 -5.712531 -0.843179 -6.239746 -1.451466 -1.556173 9.715623 -0.037244 -0.130923 0.090172 -1.753726 0.400933 12.161019 -12.035582 9.005073 7.316550 0.000000 0.000000 0.000000 -0.317717 0.435371 8.985979 4.822322 -8.987592 -2.430560 -27.680926 -30.876417 4.911173 -170.843153 -85.349497 -172.794838 0.000000 0.000000 0.000000 -3.800452 1.957487 7.871930 -5.191992 3.621019 -21.233953 22.936672 27.133563 -6.734946 -167.413128 67.521959 -175.226099 0.000000 0.000000 0.000000 
-5.960330 37.182938 -7.058789 -179.715924 3.242667 -179.314718 -5.369184 -3.980460 15.691893 0.550646 1.491535 -32.968411 1.207059 8.857321 19.142003 -9.018262 0.931851 9.831671 0.000000 0.000000 0.000000 3.169720 -1.913668 14.058172 -5.259967 -9.023973 -19.420926 -7.456732 7.770235 25.496178 7.693456 3.932408 25.735308 0.000000 0.000000 0.000000 -1.556400 -0.200169 5.987900 -6.060972 -0.385483 -6.152475 -1.303838 -1.367069 9.574310 -0.022124 -0.099215 0.062941 -1.531105 0.727510 12.185224 -11.651949 9.133828 7.565608 0.000000 0.000000 0.000000 -0.212216 0.504556 8.905494 5.223694 -9.158428 -2.245163 -30.299170 -32.347568 8.696983 -170.054580 -84.811559 -172.207210 0.000000 0.000000 0.000000 -3.637290 2.119647 7.823402 -5.464398 3.650794 -20.990662 23.562962 27.139466 -5.730069 -168.492776 66.417142 -176.643035 0.000000 0.000000 0.000000 
-6.141198 37.288216 -7.457710 -179.429903 2.514776 -179.684601 -5.828897 -4.191096 16.388354 1.210567 1.504343 -32.659622 0.753700 8.337521 19.927745 -7.983662 -0.006472 9.283906 0.000000 0.000000 0.000000 2.411935 -2.462195 13.875639 -4.879569 -8.723022 -20.167563 -6.418876 6.803504 23.499005 8.213689 3.943582 26.218523 0.000000 0.000000 0.000000 -2.001792 -0.866800 6.808259 -6.362845 0.078353 -5.769274 -1.125136 -1.202621 9.582986 -0.089446 -0.118331 0.084832 -1.446399 0.764838 12.051441 -11.341029 9.118454 7.812080 0.000000 0.000000 0.000000 -0.033211 0.874256 8.718488 5.360253 -9.451467 -1.938918 -32.907640 -33.470174 12.304018 -171.639116 -84.997702 -169.380768 0.000000 0.000000 0.000000 -3.584156 2.383429 7.650296 -5.577321 3.884931 -20.893272 24.003411 27.096288 -4.896184 -169.832039 66.222215 -178.120583 0.000000 0.000000 0.000000 
-6.296025 37.363400 -7.819538 -179.341821 1.858956 -179.797394 -6.366157 -4.409676 16.946379 1.834018 1.364252 -32.584319 0.170743 8.010026 20.091946 -6.818991 -1.083666 8.583033 0.000000 0.000000 0.000000 1.531775 -3.634491 14.231126 -4.530880 -9.462108 -20.226108 -6.523125 4.357541 21.400637 7.695452 1.628933 25.455085 0.000000 0.000000 0.000000 -2.618769 -1.438694 7.568300 -6.817310 0.614248 -5.465793 -0.963350 -0.938907 9.419043 -0.086255 -0.058528 0.009432 -1.249234 1.250997 11.925014 -11.058105 9.125527 8.080098 0.000000 0.000000 0.000000 -0.000143 1.229368 8.556491 5.596438 -9.545584 -1.755791 -35.231769 -34.109712 15.650865 -171.860400 -85.026020 -168.101037 0.000000 0.000000 0.000000 -3.398496 2.650485 7.483502 -5.677777 4.184816 -20.731501 23.987300 26.921805 -4.299438 -171.437694 66.118779 -179.639385 0.000000 0.000000 0.000000 
